<svg width="178" height="51" viewBox="0 0 178 51" fill="none" xmlns="http://www.w3.org/2000/svg">
<path d="M25.6931 5.63647L41.9431 15.6365V35.6365L25.6931 45.6365L9.44312 35.6365V15.6365L25.6931 5.63647Z" fill="url(#paint0_linear_13_279)"/>
<path d="M25.6931 11.8865L36.9431 18.1365V33.1365L25.6931 39.3865L14.4431 33.1365V18.1365L25.6931 11.8865Z" fill="url(#paint1_linear_13_279)"/>
<path d="M19.4431 19.3865H31.9431V21.8865H27.4431V33.1365H23.9431V21.8865H19.4431V19.3865Z" fill="white"/>
<path d="M72.3171 31.8569C71.321 32.189 70.1638 32.355 68.8455 32.355C67.6345 32.355 66.7019 32.0278 66.0476 31.3735C65.3933 30.7095 65.0662 29.7085 65.0662 28.3706V19.0249H63.0593V16.2417H65.2712L66.5603 12.521H69.1384V16.2417H72.1414V19.0249H69.1384V27.2573C69.1384 28.0288 69.2849 28.6001 69.5779 28.9712C69.8708 29.3325 70.325 29.5132 70.9402 29.5132C71.2332 29.5132 71.6921 29.4448 72.3171 29.3081V31.8569ZM88.4861 16.2417L82.6414 32.0913H77.7195L72.0505 16.2417H76.4011L79.1697 25.104C79.2478 25.3481 79.3699 25.7778 79.5359 26.3931C79.7117 26.9985 79.9363 27.7896 80.2097 28.7661C80.2488 28.6294 80.3269 28.356 80.4441 27.9458C80.571 27.5356 80.7078 27.0864 80.8542 26.5981C81.0007 26.1099 81.1277 25.6997 81.2351 25.3677L84.1794 16.2417H88.4861ZM100.055 28.9419C99.5085 30.1431 98.8103 31.0171 97.9607 31.564C97.1208 32.1108 96.1199 32.3843 94.9578 32.3843C93.2781 32.3843 91.989 31.8716 91.0906 30.8462C90.1921 29.811 89.7429 28.2974 89.7429 26.3052V16.2417H93.8591V25.1333C93.8591 26.52 94.0935 27.5649 94.5623 28.2681C95.031 28.9614 95.7341 29.3081 96.6716 29.3081C97.6677 29.3081 98.4685 28.8833 99.074 28.0337C99.6892 27.1743 99.9968 26.0757 99.9968 24.7378V16.2417H104.113V28.5464C104.113 29.2202 104.123 29.855 104.142 30.4507C104.162 31.0366 104.191 31.5835 104.23 32.0913H100.304C100.246 31.3882 100.202 30.7729 100.173 30.2456C100.143 29.7183 100.129 29.2837 100.129 28.9419H100.055ZM111.683 23.5952V32.0913H107.567V19.7866C107.567 18.937 107.552 18.2437 107.523 17.7065C107.504 17.1597 107.479 16.6714 107.45 16.2417H111.376C111.395 16.3589 111.42 16.6372 111.449 17.0767C111.478 17.5063 111.503 17.9507 111.522 18.4097C111.552 18.8589 111.566 19.186 111.566 19.3911H111.625C112.181 18.1802 112.88 17.3013 113.719 16.7544C114.559 16.2075 115.56 15.9341 116.722 15.9341C118.402 15.9341 119.691 16.4517 120.59 17.4868C121.488 18.522 121.937 20.0356 121.937 22.0278V32.0913H117.836V23.1997C117.836 21.8032 117.601 20.7583 117.133 20.0649C116.664 19.3716 115.956 19.0249 115.009 19.0249C114.012 19.0249 113.207 19.4546 112.592 20.314C111.986 21.1636 111.683 22.2573 111.683 23.5952ZM128.819 32.3843C127.286 32.3843 126.09 31.9692 125.23 31.1392C124.371 30.2993 123.941 29.1226 123.941 27.6089C123.941 25.9683 124.473 24.7231 125.538 23.8735C126.612 23.0239 128.165 22.5796 130.196 22.5405L133.609 22.4819V21.6763C133.609 20.6411 133.428 19.8745 133.067 19.3765C132.706 18.8687 132.115 18.6147 131.295 18.6147C130.533 18.6147 129.971 18.7905 129.61 19.1421C129.259 19.4839 129.039 20.0552 128.951 20.856L124.659 20.6509C125.196 17.5161 127.467 15.9487 131.47 15.9487C133.472 15.9487 135.015 16.4419 136.099 17.4282C137.183 18.4146 137.725 19.8159 137.725 21.6323V27.4038C137.725 28.2925 137.823 28.9077 138.018 29.2495C138.223 29.5815 138.56 29.7476 139.029 29.7476C139.342 29.7476 139.644 29.7183 139.937 29.6597V31.8862C139.429 32.0132 138.995 32.106 138.634 32.1646C138.272 32.2329 137.828 32.2671 137.301 32.2671C136.265 32.2671 135.499 32.0132 135.001 31.5054C134.512 30.9976 134.219 30.2505 134.122 29.2642H134.034C133.458 30.2993 132.735 31.0806 131.866 31.6079C130.997 32.1255 129.981 32.3843 128.819 32.3843ZM133.609 24.7524L131.5 24.7817C130.533 24.8306 129.854 24.9331 129.464 25.0894C129.063 25.2651 128.756 25.5288 128.541 25.8804C128.336 26.2319 128.233 26.7007 128.233 27.2866C128.233 28.0386 128.404 28.6001 128.746 28.9712C129.097 29.3325 129.561 29.5132 130.137 29.5132C130.782 29.5132 131.373 29.3374 131.91 28.9858C132.437 28.6343 132.852 28.1509 133.155 27.5356C133.458 26.9106 133.609 26.2515 133.609 25.5581V24.7524ZM145.164 19.4058C145.72 18.1948 146.419 17.3159 147.259 16.769C148.098 16.2222 149.099 15.9487 150.261 15.9487C151.941 15.9487 153.23 16.4663 154.129 17.5015C155.027 18.5366 155.476 20.0503 155.476 22.0425V32.0913H151.375V23.2144C151.375 21.8179 151.14 20.7729 150.672 20.0796C150.203 19.3862 149.495 19.0396 148.548 19.0396C147.552 19.0396 146.746 19.4692 146.131 20.3286C145.525 21.1782 145.222 22.272 145.222 23.6099V32.0913H141.106V10.353H145.222V16.2856C145.222 16.6372 145.218 16.9888 145.208 17.3403C145.198 17.6919 145.183 18.0386 145.164 18.3804C145.154 18.7222 145.135 19.064 145.105 19.4058H145.164Z" fill="#0F4C81"/>
<path d="M160.566 29.0217V32.0002H157.744V29.0217H160.566ZM165.791 32.1956C164.768 32.1956 163.971 31.9189 163.398 31.3655C162.825 30.8056 162.539 30.0211 162.539 29.012C162.539 27.9182 162.893 27.0881 163.603 26.5217C164.319 25.9553 165.354 25.6591 166.708 25.6331L168.984 25.594V25.0569C168.984 24.3668 168.863 23.8557 168.623 23.5237C168.382 23.1851 167.988 23.0159 167.441 23.0159C166.933 23.0159 166.559 23.1331 166.318 23.3674C166.083 23.5953 165.937 23.9762 165.878 24.51L163.017 24.3733C163.375 22.2834 164.889 21.2385 167.558 21.2385C168.893 21.2385 169.921 21.5673 170.644 22.2249C171.367 22.8824 171.728 23.8167 171.728 25.0276V28.8752C171.728 29.4677 171.793 29.8778 171.923 30.1057C172.06 30.3271 172.285 30.4377 172.597 30.4377C172.806 30.4377 173.007 30.4182 173.203 30.3792V31.8635C172.864 31.9482 172.574 32.01 172.333 32.0491C172.093 32.0946 171.796 32.1174 171.445 32.1174C170.755 32.1174 170.244 31.9482 169.912 31.6096C169.586 31.2711 169.391 30.773 169.326 30.1155H169.267C168.883 30.8056 168.401 31.3264 167.822 31.678C167.242 32.023 166.565 32.1956 165.791 32.1956ZM168.984 27.1077L167.578 27.1272C166.933 27.1597 166.481 27.2281 166.22 27.3323C165.953 27.4495 165.748 27.6252 165.605 27.8596C165.468 28.094 165.4 28.4065 165.4 28.7971C165.4 29.2984 165.514 29.6728 165.742 29.9202C165.976 30.1611 166.285 30.2815 166.669 30.2815C167.099 30.2815 167.493 30.1643 167.851 29.9299C168.203 29.6956 168.479 29.3733 168.681 28.9631C168.883 28.5465 168.984 28.107 168.984 27.6448V27.1077ZM177.226 17.5081V19.5295H174.482V17.5081H177.226ZM177.226 21.4338V32.0002H174.482V21.4338H177.226Z" fill="#00ACC1"/>
<defs>
<linearGradient id="paint0_linear_13_279" x1="9.44312" y1="5.63647" x2="3924.74" y2="3186.81" gradientUnits="userSpaceOnUse">
<stop stop-color="#1E88E5"/>
<stop offset="1" stop-color="#26C6DA"/>
</linearGradient>
<linearGradient id="paint1_linear_13_279" x1="14.4431" y1="11.8865" x2="2709.99" y2="2217.33" gradientUnits="userSpaceOnUse">
<stop stop-color="#0D3A5F"/>
<stop offset="1" stop-color="#0F4C81"/>
</linearGradient>
</defs>
</svg>
